<svg width="112" height="24" viewBox="0 0 112 24" fill="none" xmlns="http://www.w3.org/2000/svg">
<g clip-path="url(#clip0_1_569)">
<g clip-path="url(#clip1_1_569)">
<path fill-rule="evenodd" clip-rule="evenodd" d="M23.5 11.5704C23.5 5.1801 18.3515 0 12.0014 0C5.64848 0.00143732 0.5 5.1801 0.5 11.5719C0.5 17.3456 4.7056 22.1319 10.2019 23V14.9151H7.28415V11.5719H10.2048V9.02062C10.2048 6.12155 11.9224 4.52037 14.5484 4.52037C15.8075 4.52037 17.1226 4.74603 17.1226 4.74603V7.59193H15.6724C14.2451 7.59193 13.7995 8.4845 13.7995 9.40008V11.5704H16.9875L16.4787 14.9136H13.7981V22.9986C19.2944 22.1304 23.5 17.3441 23.5 11.5704Z" fill="#FF685B"/>
</g>
<g clip-path="url(#clip2_1_569)">
<path d="M56.5 1C53.5149 1 53.1395 1.01375 51.9666 1.066C50.7938 1.121 49.9949 1.30525 49.295 1.5775C48.5609 1.85363 47.8959 2.28676 47.3466 2.84663C46.7871 3.39621 46.354 4.06108 46.0775 4.795C45.8052 5.4935 45.6196 6.29375 45.566 7.4625C45.5138 8.63812 45.5 9.01213 45.5 12.0014C45.5 14.9879 45.5138 15.3619 45.566 16.5347C45.621 17.7062 45.8052 18.5051 46.0775 19.205C46.3594 19.9282 46.7348 20.5415 47.3466 21.1534C47.9571 21.7652 48.5704 22.142 49.2936 22.4225C49.9949 22.6947 50.7924 22.8804 51.9639 22.934C53.1381 22.9862 53.5121 23 56.5 23C59.4879 23 59.8605 22.9862 61.0347 22.934C62.2049 22.879 63.0065 22.6947 63.7064 22.4225C64.44 22.1462 65.1045 21.7131 65.6534 21.1534C66.2652 20.5415 66.6406 19.9282 66.9225 19.205C67.1934 18.5051 67.379 17.7062 67.434 16.5347C67.4862 15.3619 67.5 14.9879 67.5 12C67.5 9.01213 67.4862 8.63813 67.434 7.46388C67.379 6.29375 67.1934 5.4935 66.9225 4.795C66.646 4.06106 66.2129 3.39618 65.6534 2.84663C65.1042 2.28655 64.4392 1.85339 63.705 1.5775C63.0037 1.30525 62.2035 1.11963 61.0334 1.066C59.8591 1.01375 59.4865 1 56.4973 1H56.5014H56.5ZM55.5141 2.98275H56.5014C59.4384 2.98275 59.7862 2.99238 60.9454 3.046C62.0179 3.09413 62.6009 3.27425 62.9886 3.42412C63.5015 3.6235 63.8686 3.86275 64.2536 4.24775C64.6386 4.63275 64.8765 4.9985 65.0759 5.51275C65.2271 5.89913 65.4059 6.48213 65.454 7.55463C65.5076 8.71375 65.5186 9.06163 65.5186 11.9973C65.5186 14.9329 65.5076 15.2821 65.454 16.4412C65.4059 17.5138 65.2258 18.0954 65.0759 18.4831C64.8995 18.9607 64.618 19.3926 64.2522 19.7467C63.8672 20.1318 63.5015 20.3696 62.9873 20.569C62.6023 20.7203 62.0192 20.899 60.9454 20.9485C59.7862 21.0007 59.4384 21.0131 56.5014 21.0131C53.5644 21.0131 53.2151 21.0007 52.056 20.9485C50.9835 20.899 50.4019 20.7203 50.0141 20.569C49.5363 20.3929 49.104 20.1119 48.7491 19.7467C48.383 19.392 48.1011 18.9598 47.9241 18.4818C47.7743 18.0954 47.5941 17.5124 47.546 16.4399C47.4937 15.2807 47.4828 14.9329 47.4828 11.9945C47.4828 9.0575 47.4937 8.711 47.546 7.55187C47.5955 6.47937 47.7743 5.89638 47.9255 5.50863C48.1249 4.99575 48.3641 4.62862 48.7491 4.24362C49.1341 3.85862 49.4999 3.62075 50.0141 3.42138C50.4019 3.27012 50.9835 3.09138 52.056 3.04188C53.0708 2.99513 53.464 2.98137 55.5141 2.98V2.98275ZM62.3726 4.80875C62.1993 4.80875 62.0276 4.84289 61.8675 4.90923C61.7073 4.97557 61.5618 5.0728 61.4392 5.19537C61.3167 5.31794 61.2194 5.46346 61.1531 5.62361C61.0868 5.78376 61.0526 5.9554 61.0526 6.12875C61.0526 6.30209 61.0868 6.47374 61.1531 6.63389C61.2194 6.79404 61.3167 6.93956 61.4392 7.06213C61.5618 7.1847 61.7073 7.28193 61.8675 7.34827C62.0276 7.41461 62.1993 7.44875 62.3726 7.44875C62.7227 7.44875 63.0585 7.30968 63.306 7.06213C63.5536 6.81458 63.6926 6.47884 63.6926 6.12875C63.6926 5.77866 63.5536 5.44292 63.306 5.19537C63.0585 4.94782 62.7227 4.80875 62.3726 4.80875ZM56.5014 6.3515C55.7521 6.33981 55.008 6.47729 54.3123 6.75594C53.6167 7.0346 52.9835 7.44885 52.4495 7.97458C51.9155 8.50032 51.4914 9.12703 51.2019 9.81823C50.9124 10.5094 50.7634 11.2513 50.7634 12.0007C50.7634 12.7501 50.9124 13.4919 51.2019 14.1831C51.4914 14.8743 51.9155 15.5011 52.4495 16.0268C52.9835 16.5525 53.6167 16.9668 54.3123 17.2454C55.008 17.5241 55.7521 17.6616 56.5014 17.6499C57.9844 17.6267 59.3988 17.0214 60.4393 15.9645C61.4799 14.9076 62.0631 13.4839 62.0631 12.0007C62.0631 10.5175 61.4799 9.09382 60.4393 8.03691C59.3988 6.97999 57.9844 6.37464 56.5014 6.3515ZM56.5014 8.33288C57.474 8.33288 58.4067 8.71923 59.0944 9.40695C59.7821 10.0947 60.1685 11.0274 60.1685 12C60.1685 12.9726 59.7821 13.9053 59.0944 14.593C58.4067 15.2808 57.474 15.6671 56.5014 15.6671C55.5288 15.6671 54.596 15.2808 53.9083 14.593C53.2206 13.9053 52.8342 12.9726 52.8342 12C52.8342 11.0274 53.2206 10.0947 53.9083 9.40695C54.596 8.71923 55.5288 8.33288 56.5014 8.33288Z" fill="#FF685B"/>
</g>
<g clip-path="url(#clip3_1_569)">
<path d="M96.4107 21C104.713 21 109.255 14.0731 109.255 8.07669C109.255 7.88285 109.255 7.68625 109.246 7.49241C110.131 6.84789 110.894 6.04993 111.5 5.13592C110.674 5.50262 109.799 5.7443 108.903 5.85312C109.847 5.28495 110.554 4.391 110.892 3.3374C110.005 3.86647 109.035 4.23787 108.023 4.43534C107.342 3.70572 106.442 3.22237 105.461 3.06016C104.48 2.89795 103.474 3.06592 102.597 3.53807C101.721 4.01023 101.024 4.7602 100.613 5.67182C100.203 6.58345 100.103 7.60585 100.328 8.58066C98.5334 8.49005 96.7776 8.02057 95.1747 7.20269C93.5717 6.3848 92.1574 5.23678 91.0235 3.83307C90.4478 4.83421 90.2722 6.01843 90.5321 7.14526C90.7921 8.27209 91.4683 9.25705 92.4232 9.90013C91.7076 9.87565 91.0077 9.68215 90.38 9.33524V9.39754C90.3812 10.4463 90.742 11.4625 91.4015 12.2743C92.0609 13.0861 92.9784 13.6438 93.999 13.853C93.6116 13.9605 93.2114 14.014 92.8096 14.0122C92.5264 14.0131 92.2436 13.9867 91.9654 13.9333C92.2538 14.8361 92.8155 15.6254 93.5717 16.1908C94.3279 16.7561 95.2408 17.0691 96.1825 17.0859C94.5828 18.3511 92.6067 19.0373 90.5725 19.034C90.2141 19.0355 89.8559 19.0147 89.5 18.9716C91.5646 20.297 93.9623 21.0008 96.4107 21Z" fill="#FF685B"/>
</g>
</g>
<defs>
<clipPath id="clip0_1_569">
<rect width="112" height="24" fill="white"/>
</clipPath>
<clipPath id="clip1_1_569">
<rect width="24" height="24" fill="white"/>
</clipPath>
<clipPath id="clip2_1_569">
<rect width="24" height="24" fill="white" transform="translate(44)"/>
</clipPath>
<clipPath id="clip3_1_569">
<rect width="24" height="19.7647" fill="white" transform="translate(88 2.11719)"/>
</clipPath>
</defs>
</svg>
