<svg width="72" height="72" viewBox="0 0 72 72" fill="none" xmlns="http://www.w3.org/2000/svg">
<path d="M0 36C0 16.1178 16.1178 0 36 0C55.8823 0 72 16.1178 72 36C72 55.8823 55.8823 72 36 72C16.1178 72 0 55.8823 0 36Z" fill="#E74040"/>
<g clip-path="url(#clip0_1_143)">
<g clip-path="url(#clip1_1_143)">
<path d="M26.3481 51.9998H45.6513C46.8 51.9998 47.7562 51.1212 47.7562 50.0416V26.6283C47.7562 25.5484 46.8 24.6606 45.6513 24.6606H42.4692V26.4484C42.4739 26.7587 42.229 27.0155 41.919 27.0259H30.0426C29.7263 27.0183 29.4709 26.7647 29.4606 26.4484V24.6606H26.3481C25.1994 24.6606 24.2432 25.5484 24.2432 26.6283V50.0416C24.2432 51.1212 25.1994 51.9998 26.3481 51.9998ZM30.6432 34.0519C30.6432 33.7446 30.8923 33.4954 31.1997 33.4954H34.0519V30.6433C34.0519 30.3359 34.301 30.0867 34.6084 30.0867H37.391C37.6983 30.0867 37.9475 30.3359 37.9475 30.6433V33.4954H40.7997C41.107 33.4954 41.3562 33.7446 41.3562 34.0519V36.8346C41.3562 37.1419 41.107 37.3911 40.7997 37.3911H37.9475V40.2433C37.9475 40.5506 37.6983 40.7998 37.391 40.7998H34.6084C34.301 40.7998 34.0519 40.5506 34.0519 40.2433V37.3911H31.1997C30.8923 37.3911 30.6432 37.1419 30.6432 36.8346V34.0519ZM30.8698 43.6519H41.1296C41.4372 43.6519 41.6861 43.9011 41.6861 44.2085C41.6861 44.5158 41.4372 44.765 41.1296 44.765H30.8698C30.5622 44.765 30.3133 44.5158 30.3133 44.2085C30.3133 43.9011 30.5622 43.6519 30.8698 43.6519ZM28.7828 46.4346H43.2165C43.5241 46.4346 43.7731 46.6837 43.7731 46.9911C43.7731 47.2984 43.5241 47.5476 43.2165 47.5476H28.7828C28.4752 47.5476 28.2263 47.2984 28.2263 46.9911C28.2263 46.6837 28.4752 46.4346 28.7828 46.4346Z" fill="white"/>
<path d="M41.3568 22.1565H38.7525C38.4905 22.1563 38.2639 21.9734 38.2087 21.7171C37.9935 20.7226 37.0489 20 35.9625 20H35.9557C34.8984 19.9989 33.9748 20.7144 33.7117 21.7383C33.6484 21.9842 33.4267 22.1563 33.1726 22.1565H30.5742V25.913H41.3568V22.1565Z" fill="white"/>
<path d="M35.1655 36.835V39.6872H36.8351V36.835C36.8351 36.5276 37.0843 36.2785 37.3916 36.2785H40.2438V34.6089H37.3916C37.0843 34.6089 36.8351 34.3597 36.8351 34.0524V31.2002H35.1655V34.0524C35.1655 34.3597 34.9163 34.6089 34.609 34.6089H31.7568V36.2785H34.609C34.9163 36.2785 35.1655 36.5276 35.1655 36.835Z" fill="white"/>
</g>
</g>
<defs>
<clipPath id="clip0_1_143">
<rect width="32" height="32" fill="white" transform="translate(20 20)"/>
</clipPath>
<clipPath id="clip1_1_143">
<rect width="32" height="32" fill="white" transform="translate(20 20)"/>
</clipPath>
</defs>
</svg>
